<svg width="26" height="26" viewBox="0 0 26 26" fill="none" xmlns="http://www.w3.org/2000/svg">
<path d="M13 7.66725V25.0006M13 7.66725C12.5177 5.67979 11.6873 3.98067 10.617 2.79146C9.5467 1.60226 8.28625 0.978173 7 1.00058C6.11594 1.00058 5.2681 1.35177 4.64298 1.97689C4.01786 2.60202 3.66667 3.44986 3.66667 4.33392C3.66667 5.21797 4.01786 6.06582 4.64298 6.69094C5.2681 7.31606 6.11594 7.66725 7 7.66725M13 7.66725C13.4823 5.67979 14.3127 3.98067 15.383 2.79146C16.4533 1.60226 17.7138 0.978173 19 1.00058C19.8841 1.00058 20.7319 1.35177 21.357 1.97689C21.9821 2.60202 22.3333 3.44986 22.3333 4.33392C22.3333 5.21797 21.9821 6.06582 21.357 6.69094C20.7319 7.31606 19.8841 7.66725 19 7.66725M22.3333 13.0006V22.3339C22.3333 23.0412 22.0524 23.7194 21.5523 24.2195C21.0522 24.7196 20.3739 25.0006 19.6667 25.0006H6.33333C5.62609 25.0006 4.94781 24.7196 4.44771 24.2195C3.94762 23.7194 3.66667 23.0412 3.66667 22.3339V13.0006M2.33333 7.66725H23.6667C24.403 7.66725 25 8.2642 25 9.00058V11.6672C25 12.4036 24.403 13.0006 23.6667 13.0006H2.33333C1.59695 13.0006 1 12.4036 1 11.6672V9.00058C1 8.2642 1.59695 7.66725 2.33333 7.66725Z" stroke="#E87D54" stroke-width="2" stroke-linecap="round" stroke-linejoin="round"/>
</svg>
